# MagicaVoxel @ Ephtracy

# group
o 

# material
mtllib DDR4_OEM.mtl
usemtl palette

# normals
vn -1 0 0
vn 1 0 0
vn 0 0 1
vn 0 0 -1
vn 0 -1 0
vn 0 1 0

# texcoords
vt 0.185547 0.5
vt 0.462891 0.5
vt 0.990234 0.5

# verts
v -3.4 0 0.1
v -3.4 0 0
v -3.4 0.3 0.1
v -3.4 0.3 0
v -3.4 1.9 0.1
v -3.4 1.9 0
v -3.1 0.6 0.2
v -3.1 0.6 0.1
v -3.1 0.6 0
v -3.1 0.6 -0.1
v -3.1 1.5 0.2
v -3.1 1.5 0.1
v -3.1 1.5 0
v -3.1 1.5 -0.1
v -2.2 0.6 0.2
v -2.2 0.6 0.1
v -2.2 0.6 0
v -2.2 0.6 -0.1
v -2.2 1.5 0.2
v -2.2 1.5 0.1
v -2.2 1.5 0
v -2.2 1.5 -0.1
v -1.3 0.6 0.2
v -1.3 0.6 0.1
v -1.3 0.6 0
v -1.3 0.6 -0.1
v -1.3 1.5 0.2
v -1.3 1.5 0.1
v -1.3 1.5 0
v -1.3 1.5 -0.1
v -0.5 0 0.1
v -0.5 0 0
v -0.5 0.3 0.1
v -0.5 0.3 0
v 0.5 0.6 0.2
v 0.5 0.6 0.1
v 0.5 0.6 0
v 0.5 0.6 -0.1
v 0.5 1.5 0.2
v 0.5 1.5 0.1
v 0.5 1.5 0
v 0.5 1.5 -0.1
v 1.4 0.6 0.2
v 1.4 0.6 0.1
v 1.4 0.6 0
v 1.4 0.6 -0.1
v 1.4 1.5 0.2
v 1.4 1.5 0.1
v 1.4 1.5 0
v 1.4 1.5 -0.1
v 2.3 0.6 0.2
v 2.3 0.6 0.1
v 2.3 0.6 0
v 2.3 0.6 -0.1
v 2.3 1.5 0.2
v 2.3 1.5 0.1
v 2.3 1.5 0
v 2.3 1.5 -0.1
v -2.4 0.6 0.2
v -2.4 0.6 0.1
v -2.4 0.6 0
v -2.4 0.6 -0.1
v -2.4 1.5 0.2
v -2.4 1.5 0.1
v -2.4 1.5 0
v -2.4 1.5 -0.1
v -1.5 0.6 0.2
v -1.5 0.6 0.1
v -1.5 0.6 0
v -1.5 0.6 -0.1
v -1.5 1.5 0.2
v -1.5 1.5 0.1
v -1.5 1.5 0
v -1.5 1.5 -0.1
v -0.7 0 0.1
v -0.7 0 0
v -0.7 0.3 0.1
v -0.7 0.3 0
v -0.6 0.6 0.2
v -0.6 0.6 0.1
v -0.6 0.6 0
v -0.6 0.6 -0.1
v -0.6 1.5 0.2
v -0.6 1.5 0.1
v -0.6 1.5 0
v -0.6 1.5 -0.1
v 1.2 0.6 0.2
v 1.2 0.6 0.1
v 1.2 0.6 0
v 1.2 0.6 -0.1
v 1.2 1.5 0.2
v 1.2 1.5 0.1
v 1.2 1.5 0
v 1.2 1.5 -0.1
v 2.1 0.6 0.2
v 2.1 0.6 0.1
v 2.1 0.6 0
v 2.1 0.6 -0.1
v 2.1 1.5 0.2
v 2.1 1.5 0.1
v 2.1 1.5 0
v 2.1 1.5 -0.1
v 3 0.6 0.2
v 3 0.6 0.1
v 3 0.6 0
v 3 0.6 -0.1
v 3 1.5 0.2
v 3 1.5 0.1
v 3 1.5 0
v 3 1.5 -0.1
v 3.4 0 0.1
v 3.4 0 0
v 3.4 0.3 0.1
v 3.4 0.3 0
v 3.4 1.9 0.1
v 3.4 1.9 0
v -3.1 0.6 0.2
v -3.1 1.5 0.2
v -2.4 0.6 0.2
v -2.4 1.5 0.2
v -2.2 0.6 0.2
v -2.2 1.5 0.2
v -1.5 0.6 0.2
v -1.5 1.5 0.2
v -1.3 0.6 0.2
v -1.3 1.5 0.2
v -0.6 0.6 0.2
v -0.6 1.5 0.2
v 0.5 0.6 0.2
v 0.5 1.5 0.2
v 1.2 0.6 0.2
v 1.2 1.5 0.2
v 1.4 0.6 0.2
v 1.4 1.5 0.2
v 2.1 0.6 0.2
v 2.1 1.5 0.2
v 2.3 0.6 0.2
v 2.3 1.5 0.2
v 3 0.6 0.2
v 3 1.5 0.2
v -3.4 0 0.1
v -3.4 0.3 0.1
v -3.4 1.9 0.1
v -3.1 0.6 0.1
v -3.1 1.5 0.1
v -2.4 0.6 0.1
v -2.4 1.5 0.1
v -2.2 0.6 0.1
v -2.2 1.5 0.1
v -1.5 0.6 0.1
v -1.5 1.5 0.1
v -1.3 0.6 0.1
v -1.3 1.5 0.1
v -0.7 0 0.1
v -0.7 0.3 0.1
v -0.6 0.6 0.1
v -0.6 1.5 0.1
v -0.5 0 0.1
v -0.5 0.3 0.1
v 0.5 0.6 0.1
v 0.5 1.5 0.1
v 1.2 0.6 0.1
v 1.2 1.5 0.1
v 1.4 0.6 0.1
v 1.4 1.5 0.1
v 2.1 0.6 0.1
v 2.1 1.5 0.1
v 2.3 0.6 0.1
v 2.3 1.5 0.1
v 3 0.6 0.1
v 3 1.5 0.1
v 3.4 0 0.1
v 3.4 0.3 0.1
v 3.4 1.9 0.1
v -3.4 0 0
v -3.4 0.3 0
v -3.4 1.9 0
v -3.1 0.6 0
v -3.1 1.5 0
v -2.4 0.6 0
v -2.4 1.5 0
v -2.2 0.6 0
v -2.2 1.5 0
v -1.5 0.6 0
v -1.5 1.5 0
v -1.3 0.6 0
v -1.3 1.5 0
v -0.7 0 0
v -0.7 0.3 0
v -0.6 0.6 0
v -0.6 1.5 0
v -0.5 0 0
v -0.5 0.3 0
v 0.5 0.6 0
v 0.5 1.5 0
v 1.2 0.6 0
v 1.2 1.5 0
v 1.4 0.6 0
v 1.4 1.5 0
v 2.1 0.6 0
v 2.1 1.5 0
v 2.3 0.6 0
v 2.3 1.5 0
v 3 0.6 0
v 3 1.5 0
v 3.4 0 0
v 3.4 0.3 0
v 3.4 1.9 0
v -3.1 0.6 -0.1
v -3.1 1.5 -0.1
v -2.4 0.6 -0.1
v -2.4 1.5 -0.1
v -2.2 0.6 -0.1
v -2.2 1.5 -0.1
v -1.5 0.6 -0.1
v -1.5 1.5 -0.1
v -1.3 0.6 -0.1
v -1.3 1.5 -0.1
v -0.6 0.6 -0.1
v -0.6 1.5 -0.1
v 0.5 0.6 -0.1
v 0.5 1.5 -0.1
v 1.2 0.6 -0.1
v 1.2 1.5 -0.1
v 1.4 0.6 -0.1
v 1.4 1.5 -0.1
v 2.1 0.6 -0.1
v 2.1 1.5 -0.1
v 2.3 0.6 -0.1
v 2.3 1.5 -0.1
v 3 0.6 -0.1
v 3 1.5 -0.1
v -3.4 0 0.1
v -0.7 0 0.1
v -0.5 0 0.1
v 3.4 0 0.1
v -3.4 0 0
v -0.7 0 0
v -0.5 0 0
v 3.4 0 0
v -0.7 0.3 0.1
v -0.5 0.3 0.1
v -0.7 0.3 0
v -0.5 0.3 0
v -3.1 0.6 0.2
v -2.4 0.6 0.2
v -2.2 0.6 0.2
v -1.5 0.6 0.2
v -1.3 0.6 0.2
v -0.6 0.6 0.2
v 0.5 0.6 0.2
v 1.2 0.6 0.2
v 1.4 0.6 0.2
v 2.1 0.6 0.2
v 2.3 0.6 0.2
v 3 0.6 0.2
v -3.1 0.6 0.1
v -2.4 0.6 0.1
v -2.2 0.6 0.1
v -1.5 0.6 0.1
v -1.3 0.6 0.1
v -0.6 0.6 0.1
v 0.5 0.6 0.1
v 1.2 0.6 0.1
v 1.4 0.6 0.1
v 2.1 0.6 0.1
v 2.3 0.6 0.1
v 3 0.6 0.1
v -3.1 0.6 0
v -2.4 0.6 0
v -2.2 0.6 0
v -1.5 0.6 0
v -1.3 0.6 0
v -0.6 0.6 0
v 0.5 0.6 0
v 1.2 0.6 0
v 1.4 0.6 0
v 2.1 0.6 0
v 2.3 0.6 0
v 3 0.6 0
v -3.1 0.6 -0.1
v -2.4 0.6 -0.1
v -2.2 0.6 -0.1
v -1.5 0.6 -0.1
v -1.3 0.6 -0.1
v -0.6 0.6 -0.1
v 0.5 0.6 -0.1
v 1.2 0.6 -0.1
v 1.4 0.6 -0.1
v 2.1 0.6 -0.1
v 2.3 0.6 -0.1
v 3 0.6 -0.1
v -3.1 1.5 0.2
v -2.4 1.5 0.2
v -2.2 1.5 0.2
v -1.5 1.5 0.2
v -1.3 1.5 0.2
v -0.6 1.5 0.2
v 0.5 1.5 0.2
v 1.2 1.5 0.2
v 1.4 1.5 0.2
v 2.1 1.5 0.2
v 2.3 1.5 0.2
v 3 1.5 0.2
v -3.1 1.5 0.1
v -2.4 1.5 0.1
v -2.2 1.5 0.1
v -1.5 1.5 0.1
v -1.3 1.5 0.1
v -0.6 1.5 0.1
v 0.5 1.5 0.1
v 1.2 1.5 0.1
v 1.4 1.5 0.1
v 2.1 1.5 0.1
v 2.3 1.5 0.1
v 3 1.5 0.1
v -3.1 1.5 0
v -2.4 1.5 0
v -2.2 1.5 0
v -1.5 1.5 0
v -1.3 1.5 0
v -0.6 1.5 0
v 0.5 1.5 0
v 1.2 1.5 0
v 1.4 1.5 0
v 2.1 1.5 0
v 2.3 1.5 0
v 3 1.5 0
v -3.1 1.5 -0.1
v -2.4 1.5 -0.1
v -2.2 1.5 -0.1
v -1.5 1.5 -0.1
v -1.3 1.5 -0.1
v -0.6 1.5 -0.1
v 0.5 1.5 -0.1
v 1.2 1.5 -0.1
v 1.4 1.5 -0.1
v 2.1 1.5 -0.1
v 2.3 1.5 -0.1
v 3 1.5 -0.1
v -3.4 1.9 0.1
v 3.4 1.9 0.1
v -3.4 1.9 0
v 3.4 1.9 0

# faces
f 3/1/1 2/1/1 1/1/1
f 4/1/1 2/1/1 3/1/1
f 5/2/1 4/2/1 3/2/1
f 6/2/1 4/2/1 5/2/1
f 11/3/1 8/3/1 7/3/1
f 12/3/1 8/3/1 11/3/1
f 13/3/1 10/3/1 9/3/1
f 14/3/1 10/3/1 13/3/1
f 19/3/1 16/3/1 15/3/1
f 20/3/1 16/3/1 19/3/1
f 21/3/1 18/3/1 17/3/1
f 22/3/1 18/3/1 21/3/1
f 27/3/1 24/3/1 23/3/1
f 28/3/1 24/3/1 27/3/1
f 29/3/1 26/3/1 25/3/1
f 30/3/1 26/3/1 29/3/1
f 33/1/1 32/1/1 31/1/1
f 34/1/1 32/1/1 33/1/1
f 39/3/1 36/3/1 35/3/1
f 40/3/1 36/3/1 39/3/1
f 41/3/1 38/3/1 37/3/1
f 42/3/1 38/3/1 41/3/1
f 47/3/1 44/3/1 43/3/1
f 48/3/1 44/3/1 47/3/1
f 49/3/1 46/3/1 45/3/1
f 50/3/1 46/3/1 49/3/1
f 55/3/1 52/3/1 51/3/1
f 56/3/1 52/3/1 55/3/1
f 57/3/1 54/3/1 53/3/1
f 58/3/1 54/3/1 57/3/1
f 59/3/2 60/3/2 63/3/2
f 63/3/2 60/3/2 64/3/2
f 61/3/2 62/3/2 65/3/2
f 65/3/2 62/3/2 66/3/2
f 67/3/2 68/3/2 71/3/2
f 71/3/2 68/3/2 72/3/2
f 69/3/2 70/3/2 73/3/2
f 73/3/2 70/3/2 74/3/2
f 75/1/2 76/1/2 77/1/2
f 77/1/2 76/1/2 78/1/2
f 79/3/2 80/3/2 83/3/2
f 83/3/2 80/3/2 84/3/2
f 81/3/2 82/3/2 85/3/2
f 85/3/2 82/3/2 86/3/2
f 87/3/2 88/3/2 91/3/2
f 91/3/2 88/3/2 92/3/2
f 89/3/2 90/3/2 93/3/2
f 93/3/2 90/3/2 94/3/2
f 95/3/2 96/3/2 99/3/2
f 99/3/2 96/3/2 100/3/2
f 97/3/2 98/3/2 101/3/2
f 101/3/2 98/3/2 102/3/2
f 103/3/2 104/3/2 107/3/2
f 107/3/2 104/3/2 108/3/2
f 105/3/2 106/3/2 109/3/2
f 109/3/2 106/3/2 110/3/2
f 111/1/2 112/1/2 113/1/2
f 113/1/2 112/1/2 114/1/2
f 113/2/2 114/2/2 115/2/2
f 115/2/2 114/2/2 116/2/2
f 119/3/3 118/3/3 117/3/3
f 120/3/3 118/3/3 119/3/3
f 123/3/3 122/3/3 121/3/3
f 124/3/3 122/3/3 123/3/3
f 127/3/3 126/3/3 125/3/3
f 128/3/3 126/3/3 127/3/3
f 131/3/3 130/3/3 129/3/3
f 132/3/3 130/3/3 131/3/3
f 135/3/3 134/3/3 133/3/3
f 136/3/3 134/3/3 135/3/3
f 139/3/3 138/3/3 137/3/3
f 140/3/3 138/3/3 139/3/3
f 144/2/3 143/2/3 142/2/3
f 145/2/3 143/2/3 144/2/3
f 146/2/3 144/2/3 142/2/3
f 147/2/3 143/2/3 145/2/3
f 148/2/3 146/2/3 142/2/3
f 148/2/3 147/2/3 146/2/3
f 149/2/3 143/2/3 147/2/3
f 149/2/3 147/2/3 148/2/3
f 150/2/3 148/2/3 142/2/3
f 151/2/3 143/2/3 149/2/3
f 152/2/3 150/2/3 142/2/3
f 152/2/3 151/2/3 150/2/3
f 153/2/3 143/2/3 151/2/3
f 153/2/3 151/2/3 152/2/3
f 154/1/3 142/1/3 141/1/3
f 155/2/3 152/2/3 142/2/3
f 155/1/3 142/1/3 154/1/3
f 156/2/3 152/2/3 155/2/3
f 157/2/3 143/2/3 153/2/3
f 159/2/3 156/2/3 155/2/3
f 159/2/3 157/2/3 156/2/3
f 160/2/3 157/2/3 159/2/3
f 161/2/3 143/2/3 157/2/3
f 161/2/3 157/2/3 160/2/3
f 162/2/3 160/2/3 159/2/3
f 163/2/3 143/2/3 161/2/3
f 164/2/3 162/2/3 159/2/3
f 164/2/3 163/2/3 162/2/3
f 165/2/3 143/2/3 163/2/3
f 165/2/3 163/2/3 164/2/3
f 166/2/3 164/2/3 159/2/3
f 167/2/3 143/2/3 165/2/3
f 168/2/3 166/2/3 159/2/3
f 168/2/3 167/2/3 166/2/3
f 169/2/3 143/2/3 167/2/3
f 169/2/3 167/2/3 168/2/3
f 170/2/3 168/2/3 159/2/3
f 171/2/3 143/2/3 169/2/3
f 172/1/3 159/1/3 158/1/3
f 173/2/3 170/2/3 159/2/3
f 173/1/3 159/1/3 172/1/3
f 173/2/3 171/2/3 170/2/3
f 174/2/3 143/2/3 171/2/3
f 174/2/3 171/2/3 173/2/3
f 176/2/4 177/2/4 178/2/4
f 178/2/4 177/2/4 179/2/4
f 176/2/4 178/2/4 180/2/4
f 179/2/4 177/2/4 181/2/4
f 176/2/4 180/2/4 182/2/4
f 180/2/4 181/2/4 182/2/4
f 181/2/4 177/2/4 183/2/4
f 182/2/4 181/2/4 183/2/4
f 176/2/4 182/2/4 184/2/4
f 183/2/4 177/2/4 185/2/4
f 176/2/4 184/2/4 186/2/4
f 184/2/4 185/2/4 186/2/4
f 185/2/4 177/2/4 187/2/4
f 186/2/4 185/2/4 187/2/4
f 175/1/4 176/1/4 188/1/4
f 176/2/4 186/2/4 189/2/4
f 188/1/4 176/1/4 189/1/4
f 189/2/4 186/2/4 190/2/4
f 187/2/4 177/2/4 191/2/4
f 189/2/4 190/2/4 193/2/4
f 190/2/4 191/2/4 193/2/4
f 193/2/4 191/2/4 194/2/4
f 191/2/4 177/2/4 195/2/4
f 194/2/4 191/2/4 195/2/4
f 193/2/4 194/2/4 196/2/4
f 195/2/4 177/2/4 197/2/4
f 193/2/4 196/2/4 198/2/4
f 196/2/4 197/2/4 198/2/4
f 197/2/4 177/2/4 199/2/4
f 198/2/4 197/2/4 199/2/4
f 193/2/4 198/2/4 200/2/4
f 199/2/4 177/2/4 201/2/4
f 193/2/4 200/2/4 202/2/4
f 200/2/4 201/2/4 202/2/4
f 201/2/4 177/2/4 203/2/4
f 202/2/4 201/2/4 203/2/4
f 193/2/4 202/2/4 204/2/4
f 203/2/4 177/2/4 205/2/4
f 192/1/4 193/1/4 206/1/4
f 193/2/4 204/2/4 207/2/4
f 206/1/4 193/1/4 207/1/4
f 204/2/4 205/2/4 207/2/4
f 205/2/4 177/2/4 208/2/4
f 207/2/4 205/2/4 208/2/4
f 209/3/4 210/3/4 211/3/4
f 211/3/4 210/3/4 212/3/4
f 213/3/4 214/3/4 215/3/4
f 215/3/4 214/3/4 216/3/4
f 217/3/4 218/3/4 219/3/4
f 219/3/4 218/3/4 220/3/4
f 221/3/4 222/3/4 223/3/4
f 223/3/4 222/3/4 224/3/4
f 225/3/4 226/3/4 227/3/4
f 227/3/4 226/3/4 228/3/4
f 229/3/4 230/3/4 231/3/4
f 231/3/4 230/3/4 232/3/4
f 237/1/5 234/1/5 233/1/5
f 238/1/5 234/1/5 237/1/5
f 239/1/5 236/1/5 235/1/5
f 240/1/5 236/1/5 239/1/5
f 243/2/5 242/2/5 241/2/5
f 244/2/5 242/2/5 243/2/5
f 257/3/5 246/3/5 245/3/5
f 258/3/5 246/3/5 257/3/5
f 259/3/5 248/3/5 247/3/5
f 260/3/5 248/3/5 259/3/5
f 261/3/5 250/3/5 249/3/5
f 262/3/5 250/3/5 261/3/5
f 263/3/5 252/3/5 251/3/5
f 264/3/5 252/3/5 263/3/5
f 265/3/5 254/3/5 253/3/5
f 266/3/5 254/3/5 265/3/5
f 267/3/5 256/3/5 255/3/5
f 268/3/5 256/3/5 267/3/5
f 281/3/5 270/3/5 269/3/5
f 282/3/5 270/3/5 281/3/5
f 283/3/5 272/3/5 271/3/5
f 284/3/5 272/3/5 283/3/5
f 285/3/5 274/3/5 273/3/5
f 286/3/5 274/3/5 285/3/5
f 287/3/5 276/3/5 275/3/5
f 288/3/5 276/3/5 287/3/5
f 289/3/5 278/3/5 277/3/5
f 290/3/5 278/3/5 289/3/5
f 291/3/5 280/3/5 279/3/5
f 292/3/5 280/3/5 291/3/5
f 293/3/6 294/3/6 305/3/6
f 305/3/6 294/3/6 306/3/6
f 295/3/6 296/3/6 307/3/6
f 307/3/6 296/3/6 308/3/6
f 297/3/6 298/3/6 309/3/6
f 309/3/6 298/3/6 310/3/6
f 299/3/6 300/3/6 311/3/6
f 311/3/6 300/3/6 312/3/6
f 301/3/6 302/3/6 313/3/6
f 313/3/6 302/3/6 314/3/6
f 303/3/6 304/3/6 315/3/6
f 315/3/6 304/3/6 316/3/6
f 317/3/6 318/3/6 329/3/6
f 329/3/6 318/3/6 330/3/6
f 319/3/6 320/3/6 331/3/6
f 331/3/6 320/3/6 332/3/6
f 321/3/6 322/3/6 333/3/6
f 333/3/6 322/3/6 334/3/6
f 323/3/6 324/3/6 335/3/6
f 335/3/6 324/3/6 336/3/6
f 325/3/6 326/3/6 337/3/6
f 337/3/6 326/3/6 338/3/6
f 327/3/6 328/3/6 339/3/6
f 339/3/6 328/3/6 340/3/6
f 341/2/6 342/2/6 343/2/6
f 343/2/6 342/2/6 344/2/6
