# MagicaVoxel @ Ephtracy

# group
o 

# material
mtllib M2_SSD.mtl
usemtl palette

# normals
vn -1 0 0
vn 1 0 0
vn 0 0 1
vn 0 0 -1
vn 0 -1 0
vn 0 1 0

# texcoords
vt 0.185547 0.5
vt 0.462891 0.5
vt 0.990234 0.5

# verts
v -1.1 0 3
v -1.1 0 2.8
v -1.1 0 -3
v -1.1 0.1 3
v -1.1 0.1 2.8
v -1.1 0.1 -3
v -0.8 0.1 2.3
v -0.8 0.1 -2.5
v -0.8 0.2 2.3
v -0.8 0.2 -2.5
v -0.7 0.1 2.4
v -0.7 0.1 2.3
v -0.7 0.1 -2.5
v -0.7 0.1 -2.6
v -0.7 0.2 2.4
v -0.7 0.2 2.3
v -0.7 0.2 -2.5
v -0.7 0.2 -2.6
v -0.6 0.1 2.5
v -0.6 0.1 2.4
v -0.6 0.1 -2.6
v -0.6 0.1 -2.7
v -0.6 0.2 2.5
v -0.6 0.2 2.4
v -0.6 0.2 -2.6
v -0.6 0.2 -2.7
v 0.5 0 3
v 0.5 0 2.8
v 0.5 0.1 3
v 0.5 0.1 2.8
v 0.3 0 3
v 0.3 0 2.8
v 0.3 0.1 3
v 0.3 0.1 2.8
v 0.6 0.1 2.5
v 0.6 0.1 2.4
v 0.6 0.1 -2.6
v 0.6 0.1 -2.7
v 0.6 0.2 2.5
v 0.6 0.2 2.4
v 0.6 0.2 -2.6
v 0.6 0.2 -2.7
v 0.7 0.1 2.4
v 0.7 0.1 2.3
v 0.7 0.1 -2.5
v 0.7 0.1 -2.6
v 0.7 0.2 2.4
v 0.7 0.2 2.3
v 0.7 0.2 -2.5
v 0.7 0.2 -2.6
v 0.8 0.1 2.3
v 0.8 0.1 -2.5
v 0.8 0.2 2.3
v 0.8 0.2 -2.5
v 1.1 0 3
v 1.1 0 2.8
v 1.1 0 -3
v 1.1 0.1 3
v 1.1 0.1 2.8
v 1.1 0.1 -3
v -1.1 0 3
v -1.1 0.1 3
v 0.3 0 3
v 0.3 0.1 3
v 0.5 0 3
v 0.5 0.1 3
v 1.1 0 3
v 1.1 0.1 3
v 0.3 0 2.8
v 0.3 0.1 2.8
v 0.5 0 2.8
v 0.5 0.1 2.8
v -0.6 0.1 2.5
v -0.6 0.2 2.5
v 0.6 0.1 2.5
v 0.6 0.2 2.5
v -0.7 0.1 2.4
v -0.7 0.2 2.4
v -0.6 0.1 2.4
v -0.6 0.2 2.4
v 0.6 0.1 2.4
v 0.6 0.2 2.4
v 0.7 0.1 2.4
v 0.7 0.2 2.4
v -0.8 0.1 2.3
v -0.8 0.2 2.3
v -0.7 0.1 2.3
v -0.7 0.2 2.3
v 0.7 0.1 2.3
v 0.7 0.2 2.3
v 0.8 0.1 2.3
v 0.8 0.2 2.3
v -0.8 0.1 -2.5
v -0.8 0.2 -2.5
v -0.7 0.1 -2.5
v -0.7 0.2 -2.5
v 0.7 0.1 -2.5
v 0.7 0.2 -2.5
v 0.8 0.1 -2.5
v 0.8 0.2 -2.5
v -0.7 0.1 -2.6
v -0.7 0.2 -2.6
v -0.6 0.1 -2.6
v -0.6 0.2 -2.6
v 0.6 0.1 -2.6
v 0.6 0.2 -2.6
v 0.7 0.1 -2.6
v 0.7 0.2 -2.6
v -0.6 0.1 -2.7
v -0.6 0.2 -2.7
v 0.6 0.1 -2.7
v 0.6 0.2 -2.7
v -1.1 0 -3
v -1.1 0.1 -3
v 1.1 0 -3
v 1.1 0.1 -3
v -1.1 0 3
v 0.3 0 3
v 0.5 0 3
v 1.1 0 3
v -1.1 0 2.8
v 0.3 0 2.8
v 0.5 0 2.8
v 1.1 0 2.8
v -1.1 0 -3
v 1.1 0 -3
v -1.1 0.1 3
v 0.3 0.1 3
v 0.5 0.1 3
v 1.1 0.1 3
v -1.1 0.1 2.8
v 0.3 0.1 2.8
v 0.5 0.1 2.8
v 1.1 0.1 2.8
v -0.6 0.1 2.5
v 0.6 0.1 2.5
v -0.7 0.1 2.4
v -0.6 0.1 2.4
v 0.6 0.1 2.4
v 0.7 0.1 2.4
v -0.8 0.1 2.3
v -0.7 0.1 2.3
v 0.7 0.1 2.3
v 0.8 0.1 2.3
v -0.8 0.1 -2.5
v -0.7 0.1 -2.5
v 0.7 0.1 -2.5
v 0.8 0.1 -2.5
v -0.7 0.1 -2.6
v -0.6 0.1 -2.6
v 0.6 0.1 -2.6
v 0.7 0.1 -2.6
v -0.6 0.1 -2.7
v 0.6 0.1 -2.7
v -1.1 0.1 -3
v 1.1 0.1 -3
v -0.6 0.2 2.5
v 0.6 0.2 2.5
v -0.7 0.2 2.4
v -0.6 0.2 2.4
v 0.6 0.2 2.4
v 0.7 0.2 2.4
v -0.8 0.2 2.3
v -0.7 0.2 2.3
v 0.7 0.2 2.3
v 0.8 0.2 2.3
v -0.8 0.2 -2.5
v -0.7 0.2 -2.5
v 0.7 0.2 -2.5
v 0.8 0.2 -2.5
v -0.7 0.2 -2.6
v -0.6 0.2 -2.6
v 0.6 0.2 -2.6
v 0.7 0.2 -2.6
v -0.6 0.2 -2.7
v 0.6 0.2 -2.7

# faces
f 4/1/1 2/1/1 1/1/1
f 5/2/1 3/2/1 2/2/1
f 5/1/1 2/1/1 4/1/1
f 6/2/1 3/2/1 5/2/1
f 9/3/1 8/3/1 7/3/1
f 10/3/1 8/3/1 9/3/1
f 15/3/1 12/3/1 11/3/1
f 16/3/1 12/3/1 15/3/1
f 17/3/1 14/3/1 13/3/1
f 18/3/1 14/3/1 17/3/1
f 23/3/1 20/3/1 19/3/1
f 24/3/1 20/3/1 23/3/1
f 25/3/1 22/3/1 21/3/1
f 26/3/1 22/3/1 25/3/1
f 29/1/1 28/1/1 27/1/1
f 30/1/1 28/1/1 29/1/1
f 31/1/2 32/1/2 33/1/2
f 33/1/2 32/1/2 34/1/2
f 35/3/2 36/3/2 39/3/2
f 39/3/2 36/3/2 40/3/2
f 37/3/2 38/3/2 41/3/2
f 41/3/2 38/3/2 42/3/2
f 43/3/2 44/3/2 47/3/2
f 47/3/2 44/3/2 48/3/2
f 45/3/2 46/3/2 49/3/2
f 49/3/2 46/3/2 50/3/2
f 51/3/2 52/3/2 53/3/2
f 53/3/2 52/3/2 54/3/2
f 55/1/2 56/1/2 58/1/2
f 56/2/2 57/2/2 59/2/2
f 58/1/2 56/1/2 59/1/2
f 59/2/2 57/2/2 60/2/2
f 63/1/3 62/1/3 61/1/3
f 64/1/3 62/1/3 63/1/3
f 67/1/3 66/1/3 65/1/3
f 68/1/3 66/1/3 67/1/3
f 71/2/3 70/2/3 69/2/3
f 72/2/3 70/2/3 71/2/3
f 75/3/3 74/3/3 73/3/3
f 76/3/3 74/3/3 75/3/3
f 79/3/3 78/3/3 77/3/3
f 80/3/3 78/3/3 79/3/3
f 83/3/3 82/3/3 81/3/3
f 84/3/3 82/3/3 83/3/3
f 87/3/3 86/3/3 85/3/3
f 88/3/3 86/3/3 87/3/3
f 91/3/3 90/3/3 89/3/3
f 92/3/3 90/3/3 91/3/3
f 93/3/4 94/3/4 95/3/4
f 95/3/4 94/3/4 96/3/4
f 97/3/4 98/3/4 99/3/4
f 99/3/4 98/3/4 100/3/4
f 101/3/4 102/3/4 103/3/4
f 103/3/4 102/3/4 104/3/4
f 105/3/4 106/3/4 107/3/4
f 107/3/4 106/3/4 108/3/4
f 109/3/4 110/3/4 111/3/4
f 111/3/4 110/3/4 112/3/4
f 113/2/4 114/2/4 115/2/4
f 115/2/4 114/2/4 116/2/4
f 121/1/5 118/1/5 117/1/5
f 122/1/5 118/1/5 121/1/5
f 123/1/5 120/1/5 119/1/5
f 124/1/5 120/1/5 123/1/5
f 125/2/5 122/2/5 121/2/5
f 125/2/5 123/2/5 122/2/5
f 125/2/5 124/2/5 123/2/5
f 126/2/5 124/2/5 125/2/5
f 127/1/6 128/1/6 131/1/6
f 131/1/6 128/1/6 132/1/6
f 129/1/6 130/1/6 133/1/6
f 133/1/6 130/1/6 134/1/6
f 131/2/6 132/2/6 135/2/6
f 132/2/6 133/2/6 135/2/6
f 133/2/6 134/2/6 135/2/6
f 135/2/6 134/2/6 136/2/6
f 131/2/6 135/2/6 137/2/6
f 137/2/6 135/2/6 138/2/6
f 136/2/6 134/2/6 139/2/6
f 139/2/6 134/2/6 140/2/6
f 131/2/6 137/2/6 141/2/6
f 141/2/6 137/2/6 142/2/6
f 140/2/6 134/2/6 143/2/6
f 143/2/6 134/2/6 144/2/6
f 131/2/6 141/2/6 145/2/6
f 144/2/6 134/2/6 148/2/6
f 145/2/6 146/2/6 149/2/6
f 147/2/6 148/2/6 152/2/6
f 149/2/6 150/2/6 153/2/6
f 151/2/6 152/2/6 154/2/6
f 149/2/6 153/2/6 155/2/6
f 153/2/6 154/2/6 155/2/6
f 131/2/6 145/2/6 155/2/6
f 145/2/6 149/2/6 155/2/6
f 154/2/6 152/2/6 156/2/6
f 155/2/6 154/2/6 156/2/6
f 148/2/6 134/2/6 156/2/6
f 152/2/6 148/2/6 156/2/6
f 157/3/6 158/3/6 160/3/6
f 160/3/6 158/3/6 161/3/6
f 159/3/6 160/3/6 164/3/6
f 161/3/6 162/3/6 164/3/6
f 160/3/6 161/3/6 164/3/6
f 164/3/6 162/3/6 165/3/6
f 163/3/6 164/3/6 167/3/6
f 165/3/6 166/3/6 167/3/6
f 164/3/6 165/3/6 167/3/6
f 167/3/6 166/3/6 168/3/6
f 168/3/6 166/3/6 169/3/6
f 169/3/6 166/3/6 170/3/6
f 168/3/6 169/3/6 171/3/6
f 171/3/6 169/3/6 172/3/6
f 172/3/6 169/3/6 173/3/6
f 173/3/6 169/3/6 174/3/6
f 172/3/6 173/3/6 175/3/6
f 175/3/6 173/3/6 176/3/6
