# MagicaVoxel @ Ephtracy

# group
o 

# material
mtllib Sata_SSD.mtl
usemtl palette

# normals
vn -1 0 0
vn 1 0 0
vn 0 0 1
vn 0 0 -1
vn 0 -1 0
vn 0 1 0

# texcoords
vt 0.185547 0.5
vt 0.798828 0.5
vt 0.958984 0.5
vt 0.974609 0.5
vt 0.990234 0.5

# verts
v -3.5 0.1 4.6
v -3.5 0.1 -4.6
v -3.5 0.9 4.6
v -3.5 0.9 -4.6
v -3.4 0.1 4.8
v -3.4 0.1 4.6
v -3.4 0.1 -4.6
v -3.4 0.1 -4.8
v -3.4 0.9 4.8
v -3.4 0.9 4.6
v -3.4 0.9 -4.6
v -3.4 0.9 -4.8
v -3.3 0.1 4.9
v -3.3 0.1 4.8
v -3.3 0.1 -4.8
v -3.3 0.1 -4.9
v -3.3 0.9 4.9
v -3.3 0.9 4.8
v -3.3 0.9 -4.8
v -3.3 0.9 -4.9
v -3.1 0.1 5
v -3.1 0.1 4.9
v -3.1 0.1 -4.9
v -3.1 0.1 -5
v -3.1 0.9 5
v -3.1 0.9 4.9
v -3.1 0.9 -4.9
v -3.1 0.9 -5
v -0.3 0.6 5
v -0.3 0.6 4.8
v -0.3 0.7 5
v -0.3 0.7 4.8
v 0.7 0.6 5
v 0.7 0.6 4.8
v 0.7 0.7 5
v 0.7 0.7 4.8
v 2.3 0.5 5
v 2.3 0.5 4.8
v 2.3 0.8 5
v 2.3 0.8 4.9
v 2.3 0.8 4.8
v 2.4 0.8 5
v 2.4 0.8 4.9
v 2.4 0.9 5
v 2.4 0.9 4.9
v -0.5 0.8 5
v -0.5 0.8 4.9
v -0.5 0.9 5
v -0.5 0.9 4.9
v -0.4 0.5 5
v -0.4 0.5 4.8
v -0.4 0.8 5
v -0.4 0.8 4.9
v -0.4 0.8 4.8
v 0.5 0.6 5
v 0.5 0.6 4.8
v 0.5 0.7 5
v 0.5 0.7 4.8
v 2.2 0.6 5
v 2.2 0.6 4.8
v 2.2 0.7 5
v 2.2 0.7 4.8
v 3.1 0.1 5
v 3.1 0.1 4.9
v 3.1 0.1 -4.9
v 3.1 0.1 -5
v 3.1 0.9 5
v 3.1 0.9 4.9
v 3.1 0.9 -4.9
v 3.1 0.9 -5
v 3.3 0.1 4.9
v 3.3 0.1 4.8
v 3.3 0.1 -4.8
v 3.3 0.1 -4.9
v 3.3 0.9 4.9
v 3.3 0.9 4.8
v 3.3 0.9 -4.8
v 3.3 0.9 -4.9
v 3.4 0.1 4.8
v 3.4 0.1 4.6
v 3.4 0.1 -4.6
v 3.4 0.1 -4.8
v 3.4 0.9 4.8
v 3.4 0.9 4.6
v 3.4 0.9 -4.6
v 3.4 0.9 -4.8
v 3.5 0.1 4.6
v 3.5 0.1 -4.6
v 3.5 0.9 4.6
v 3.5 0.9 -4.6
v -3.1 0.1 5
v -3.1 0.9 5
v -0.5 0.4 5
v -0.5 0.8 5
v -0.5 0.9 5
v -0.4 0.5 5
v -0.4 0.8 5
v -0.3 0.6 5
v -0.3 0.7 5
v 0.5 0.6 5
v 0.5 0.7 5
v 0.7 0.6 5
v 0.7 0.7 5
v 2.2 0.6 5
v 2.2 0.7 5
v 2.3 0.5 5
v 2.3 0.8 5
v 2.4 0.4 5
v 2.4 0.8 5
v 2.4 0.9 5
v 3.1 0.1 5
v 3.1 0.9 5
v -3.3 0.1 4.9
v -3.3 0.9 4.9
v -3.1 0.1 4.9
v -3.1 0.9 4.9
v -0.5 0.8 4.9
v -0.5 0.9 4.9
v -0.4 0.8 4.9
v 2.3 0.8 4.9
v 2.4 0.8 4.9
v 2.4 0.9 4.9
v 3.1 0.1 4.9
v 3.1 0.9 4.9
v 3.3 0.1 4.9
v 3.3 0.9 4.9
v -3.4 0.1 4.8
v -3.4 0.9 4.8
v -3.3 0.1 4.8
v -3.3 0.9 4.8
v -0.4 0.5 4.8
v -0.4 0.8 4.8
v -0.3 0.6 4.8
v -0.3 0.7 4.8
v 0.5 0.6 4.8
v 0.5 0.7 4.8
v 0.7 0.6 4.8
v 0.7 0.7 4.8
v 2.2 0.6 4.8
v 2.2 0.7 4.8
v 2.3 0.5 4.8
v 2.3 0.8 4.8
v 3.3 0.1 4.8
v 3.3 0.9 4.8
v 3.4 0.1 4.8
v 3.4 0.9 4.8
v -3.5 0.1 4.6
v -3.5 0.9 4.6
v -3.4 0.1 4.6
v -3.4 0.9 4.6
v 3.4 0.1 4.6
v 3.4 0.9 4.6
v 3.5 0.1 4.6
v 3.5 0.9 4.6
v -3.5 0.1 -4.6
v -3.5 0.9 -4.6
v -3.4 0.1 -4.6
v -3.4 0.9 -4.6
v 3.4 0.1 -4.6
v 3.4 0.9 -4.6
v 3.5 0.1 -4.6
v 3.5 0.9 -4.6
v -3.4 0.1 -4.8
v -3.4 0.9 -4.8
v -3.3 0.1 -4.8
v -3.3 0.9 -4.8
v 3.3 0.1 -4.8
v 3.3 0.9 -4.8
v 3.4 0.1 -4.8
v 3.4 0.9 -4.8
v -3.3 0.1 -4.9
v -3.3 0.9 -4.9
v -3.1 0.1 -4.9
v -3.1 0.9 -4.9
v 3.1 0.1 -4.9
v 3.1 0.9 -4.9
v 3.3 0.1 -4.9
v 3.3 0.9 -4.9
v -3.1 0.1 -5
v -3.1 0.9 -5
v 3.1 0.1 -5
v 3.1 0.9 -5
v -3.1 0.1 5
v 3.1 0.1 5
v -3.3 0.1 4.9
v -3.1 0.1 4.9
v 3.1 0.1 4.9
v 3.3 0.1 4.9
v -3.4 0.1 4.8
v -3.3 0.1 4.8
v 3.3 0.1 4.8
v 3.4 0.1 4.8
v -3.5 0.1 4.6
v -3.4 0.1 4.6
v 3.4 0.1 4.6
v 3.5 0.1 4.6
v -3.5 0.1 -4.6
v -3.4 0.1 -4.6
v 3.4 0.1 -4.6
v 3.5 0.1 -4.6
v -3.4 0.1 -4.8
v -3.3 0.1 -4.8
v 3.3 0.1 -4.8
v 3.4 0.1 -4.8
v -3.3 0.1 -4.9
v -3.1 0.1 -4.9
v 3.1 0.1 -4.9
v 3.3 0.1 -4.9
v -3.1 0.1 -5
v 3.1 0.1 -5
v -0.3 0.6 5
v 0.5 0.6 5
v 0.7 0.6 5
v 2.2 0.6 5
v -0.3 0.6 4.8
v 0.5 0.6 4.8
v 0.7 0.6 4.8
v 2.2 0.6 4.8
v -0.4 0.8 4.9
v 2.3 0.8 4.9
v -0.4 0.8 4.8
v 2.3 0.8 4.8
v -0.4 0.5 5
v 2.3 0.5 5
v -0.4 0.5 4.8
v 2.3 0.5 4.8
v -0.3 0.7 5
v 0.5 0.7 5
v 0.7 0.7 5
v 2.2 0.7 5
v -0.3 0.7 4.8
v 0.5 0.7 4.8
v 0.7 0.7 4.8
v 2.2 0.7 4.8
v -0.5 0.8 5
v -0.4 0.8 5
v 2.3 0.8 5
v 2.4 0.8 5
v -0.5 0.8 4.9
v -0.4 0.8 4.9
v 2.3 0.8 4.9
v 2.4 0.8 4.9
v -3.1 0.9 5
v -0.5 0.9 5
v 2.4 0.9 5
v 3.1 0.9 5
v -3.3 0.9 4.9
v -3.1 0.9 4.9
v -0.5 0.9 4.9
v 2.4 0.9 4.9
v 3.1 0.9 4.9
v 3.3 0.9 4.9
v -3.4 0.9 4.8
v -3.3 0.9 4.8
v -0.5 0.9 4.8
v 2.4 0.9 4.8
v 3.3 0.9 4.8
v 3.4 0.9 4.8
v -3.5 0.9 4.6
v -3.4 0.9 4.6
v 3.4 0.9 4.6
v 3.5 0.9 4.6
v -1.9 0.9 3
v -1.2 0.9 3
v 0.1 0.9 3
v 1.9 0.9 3
v -2 0.9 2.9
v -1.9 0.9 2.9
v 1.9 0.9 2.9
v 2 0.9 2.9
v -2.1 0.9 2.8
v -2 0.9 2.8
v 2 0.9 2.8
v 2.1 0.9 2.8
v -2.2 0.9 2.7
v -2.1 0.9 2.7
v 2.1 0.9 2.7
v 2.2 0.9 2.7
v -2.2 0.9 -2.7
v -2.1 0.9 -2.7
v 2.1 0.9 -2.7
v 2.2 0.9 -2.7
v -2.1 0.9 -2.8
v -2 0.9 -2.8
v 2 0.9 -2.8
v 2.1 0.9 -2.8
v -2 0.9 -2.9
v -1.9 0.9 -2.9
v 1.9 0.9 -2.9
v 2 0.9 -2.9
v -1.9 0.9 -3
v -1.2 0.9 -3
v 0.1 0.9 -3
v 1.9 0.9 -3
v -3.5 0.9 -4.6
v -3.4 0.9 -4.6
v 3.4 0.9 -4.6
v 3.5 0.9 -4.6
v -3.4 0.9 -4.8
v -3.3 0.9 -4.8
v 3.3 0.9 -4.8
v 3.4 0.9 -4.8
v -3.3 0.9 -4.9
v -3.1 0.9 -4.9
v 3.1 0.9 -4.9
v 3.3 0.9 -4.9
v -3.1 0.9 -5
v 3.1 0.9 -5

# faces
f 3/4/1 2/4/1 1/4/1
f 4/4/1 2/4/1 3/4/1
f 9/4/1 6/4/1 5/4/1
f 10/4/1 6/4/1 9/4/1
f 11/4/1 8/4/1 7/4/1
f 12/4/1 8/4/1 11/4/1
f 17/4/1 14/4/1 13/4/1
f 18/4/1 14/4/1 17/4/1
f 19/4/1 16/4/1 15/4/1
f 20/4/1 16/4/1 19/4/1
f 25/4/1 22/4/1 21/4/1
f 26/4/1 22/4/1 25/4/1
f 27/4/1 24/4/1 23/4/1
f 28/4/1 24/4/1 27/4/1
f 31/1/1 30/1/1 29/1/1
f 32/1/1 30/1/1 31/1/1
f 35/1/1 34/1/1 33/1/1
f 36/1/1 34/1/1 35/1/1
f 39/5/1 38/5/1 37/5/1
f 40/5/1 38/5/1 39/5/1
f 41/5/1 38/5/1 40/5/1
f 44/4/1 43/4/1 42/4/1
f 45/4/1 43/4/1 44/4/1
f 46/4/2 47/4/2 48/4/2
f 48/4/2 47/4/2 49/4/2
f 50/5/2 51/5/2 52/5/2
f 52/5/2 51/5/2 53/5/2
f 53/5/2 51/5/2 54/5/2
f 55/1/2 56/1/2 57/1/2
f 57/1/2 56/1/2 58/1/2
f 59/1/2 60/1/2 61/1/2
f 61/1/2 60/1/2 62/1/2
f 63/4/2 64/4/2 67/4/2
f 67/4/2 64/4/2 68/4/2
f 65/4/2 66/4/2 69/4/2
f 69/4/2 66/4/2 70/4/2
f 71/4/2 72/4/2 75/4/2
f 75/4/2 72/4/2 76/4/2
f 73/4/2 74/4/2 77/4/2
f 77/4/2 74/4/2 78/4/2
f 79/4/2 80/4/2 83/4/2
f 83/4/2 80/4/2 84/4/2
f 81/4/2 82/4/2 85/4/2
f 85/4/2 82/4/2 86/4/2
f 87/4/2 88/4/2 89/4/2
f 89/4/2 88/4/2 90/4/2
f 93/4/3 92/4/3 91/4/3
f 94/4/3 92/4/3 93/4/3
f 95/4/3 92/4/3 94/4/3
f 96/5/3 94/5/3 93/5/3
f 97/5/3 94/5/3 96/5/3
f 100/1/3 99/1/3 98/1/3
f 101/1/3 99/1/3 100/1/3
f 104/1/3 103/1/3 102/1/3
f 105/1/3 103/1/3 104/1/3
f 106/5/3 96/5/3 93/5/3
f 108/4/3 93/4/3 91/4/3
f 108/5/3 107/5/3 106/5/3
f 108/5/3 106/5/3 93/5/3
f 109/5/3 107/5/3 108/5/3
f 111/4/3 109/4/3 108/4/3
f 111/4/3 110/4/3 109/4/3
f 111/4/3 108/4/3 91/4/3
f 112/4/3 110/4/3 111/4/3
f 115/4/3 114/4/3 113/4/3
f 116/4/3 114/4/3 115/4/3
f 119/5/3 118/5/3 117/5/3
f 120/5/3 118/5/3 119/5/3
f 121/5/3 118/5/3 120/5/3
f 122/5/3 118/5/3 121/5/3
f 125/4/3 124/4/3 123/4/3
f 126/4/3 124/4/3 125/4/3
f 129/4/3 128/4/3 127/4/3
f 130/4/3 128/4/3 129/4/3
f 133/5/3 132/5/3 131/5/3
f 134/5/3 132/5/3 133/5/3
f 135/5/3 133/5/3 131/5/3
f 136/5/3 132/5/3 134/5/3
f 137/5/3 135/5/3 131/5/3
f 137/5/3 136/5/3 135/5/3
f 138/5/3 132/5/3 136/5/3
f 138/5/3 136/5/3 137/5/3
f 139/5/3 137/5/3 131/5/3
f 140/5/3 132/5/3 138/5/3
f 141/5/3 139/5/3 131/5/3
f 141/5/3 140/5/3 139/5/3
f 142/5/3 132/5/3 140/5/3
f 142/5/3 140/5/3 141/5/3
f 145/4/3 144/4/3 143/4/3
f 146/4/3 144/4/3 145/4/3
f 149/4/3 148/4/3 147/4/3
f 150/4/3 148/4/3 149/4/3
f 153/4/3 152/4/3 151/4/3
f 154/4/3 152/4/3 153/4/3
f 155/4/4 156/4/4 157/4/4
f 157/4/4 156/4/4 158/4/4
f 159/4/4 160/4/4 161/4/4
f 161/4/4 160/4/4 162/4/4
f 163/4/4 164/4/4 165/4/4
f 165/4/4 164/4/4 166/4/4
f 167/4/4 168/4/4 169/4/4
f 169/4/4 168/4/4 170/4/4
f 171/4/4 172/4/4 173/4/4
f 173/4/4 172/4/4 174/4/4
f 175/4/4 176/4/4 177/4/4
f 177/4/4 176/4/4 178/4/4
f 179/4/4 180/4/4 181/4/4
f 181/4/4 180/4/4 182/4/4
f 186/4/5 184/4/5 183/4/5
f 187/4/5 184/4/5 186/4/5
f 190/4/5 186/4/5 185/4/5
f 190/4/5 188/4/5 187/4/5
f 190/4/5 187/4/5 186/4/5
f 191/4/5 188/4/5 190/4/5
f 194/4/5 190/4/5 189/4/5
f 194/4/5 192/4/5 191/4/5
f 194/4/5 191/4/5 190/4/5
f 195/4/5 192/4/5 194/4/5
f 197/4/5 194/4/5 193/4/5
f 197/4/5 196/4/5 195/4/5
f 197/4/5 195/4/5 194/4/5
f 198/4/5 196/4/5 197/4/5
f 199/4/5 196/4/5 198/4/5
f 200/4/5 196/4/5 199/4/5
f 201/4/5 199/4/5 198/4/5
f 202/4/5 199/4/5 201/4/5
f 203/4/5 199/4/5 202/4/5
f 204/4/5 199/4/5 203/4/5
f 205/4/5 203/4/5 202/4/5
f 206/4/5 203/4/5 205/4/5
f 207/4/5 203/4/5 206/4/5
f 208/4/5 203/4/5 207/4/5
f 209/4/5 207/4/5 206/4/5
f 210/4/5 207/4/5 209/4/5
f 215/1/5 212/1/5 211/1/5
f 216/1/5 212/1/5 215/1/5
f 217/1/5 214/1/5 213/1/5
f 218/1/5 214/1/5 217/1/5
f 221/5/5 220/5/5 219/5/5
f 222/5/5 220/5/5 221/5/5
f 223/5/6 224/5/6 225/5/6
f 225/5/6 224/5/6 226/5/6
f 227/1/6 228/1/6 231/1/6
f 231/1/6 228/1/6 232/1/6
f 229/1/6 230/1/6 233/1/6
f 233/1/6 230/1/6 234/1/6
f 235/5/6 236/5/6 239/5/6
f 239/5/6 236/5/6 240/5/6
f 237/5/6 238/5/6 241/5/6
f 241/5/6 238/5/6 242/5/6
f 243/4/6 244/4/6 248/4/6
f 248/4/6 244/4/6 249/4/6
f 245/4/6 246/4/6 250/4/6
f 250/4/6 246/4/6 251/4/6
f 248/4/6 249/4/6 254/4/6
f 247/4/6 248/4/6 254/4/6
f 249/5/6 250/5/6 255/5/6
f 254/4/6 249/4/6 255/4/6
f 251/4/6 252/4/6 256/4/6
f 255/5/6 250/5/6 256/5/6
f 250/4/6 251/4/6 256/4/6
f 256/4/6 252/4/6 257/4/6
f 254/4/6 255/4/6 260/4/6
f 257/4/6 258/4/6 260/4/6
f 256/4/6 257/4/6 260/4/6
f 255/4/6 256/4/6 260/4/6
f 253/4/6 254/4/6 260/4/6
f 260/4/6 258/4/6 261/4/6
f 259/4/6 260/4/6 263/4/6
f 261/4/6 262/4/6 263/4/6
f 260/4/6 261/4/6 263/4/6
f 263/4/6 262/4/6 264/4/6
f 264/4/6 262/4/6 265/4/6
f 265/4/6 262/4/6 266/4/6
f 259/4/6 263/4/6 267/4/6
f 263/2/6 264/2/6 268/2/6
f 267/4/6 263/4/6 268/4/6
f 266/4/6 262/4/6 269/4/6
f 265/2/6 266/2/6 269/2/6
f 269/4/6 262/4/6 270/4/6
f 259/4/6 267/4/6 271/4/6
f 267/2/6 268/2/6 272/2/6
f 271/4/6 267/4/6 272/4/6
f 270/4/6 262/4/6 273/4/6
f 269/2/6 270/2/6 273/2/6
f 273/4/6 262/4/6 274/4/6
f 259/4/6 271/4/6 275/4/6
f 271/2/6 272/2/6 276/2/6
f 275/4/6 271/4/6 276/4/6
f 274/4/6 262/4/6 277/4/6
f 273/2/6 274/2/6 277/2/6
f 277/4/6 262/4/6 278/4/6
f 259/4/6 275/4/6 279/4/6
f 275/2/6 276/2/6 279/2/6
f 276/2/6 272/2/6 280/2/6
f 279/2/6 276/2/6 280/2/6
f 277/2/6 278/2/6 281/2/6
f 273/2/6 277/2/6 281/2/6
f 278/4/6 262/4/6 282/4/6
f 281/2/6 278/2/6 282/2/6
f 280/2/6 272/2/6 283/2/6
f 279/4/6 280/4/6 283/4/6
f 272/2/6 268/2/6 284/2/6
f 283/2/6 272/2/6 284/2/6
f 273/2/6 281/2/6 285/2/6
f 269/2/6 273/2/6 285/2/6
f 281/4/6 282/4/6 286/4/6
f 285/2/6 281/2/6 286/2/6
f 284/2/6 268/2/6 287/2/6
f 283/4/6 284/4/6 287/4/6
f 268/2/6 264/2/6 288/2/6
f 287/2/6 268/2/6 288/2/6
f 265/2/6 269/2/6 289/2/6
f 269/2/6 285/2/6 289/2/6
f 285/4/6 286/4/6 290/4/6
f 289/2/6 285/2/6 290/2/6
f 288/2/6 264/2/6 291/2/6
f 287/4/6 288/4/6 291/4/6
f 264/3/6 265/3/6 292/3/6
f 291/2/6 264/2/6 292/2/6
f 265/2/6 289/2/6 293/2/6
f 292/3/6 265/3/6 293/3/6
f 289/4/6 290/4/6 294/4/6
f 293/2/6 289/2/6 294/2/6
f 283/4/6 287/4/6 295/4/6
f 279/4/6 283/4/6 295/4/6
f 293/4/6 294/4/6 295/4/6
f 292/4/6 293/4/6 295/4/6
f 287/4/6 291/4/6 295/4/6
f 291/4/6 292/4/6 295/4/6
f 259/4/6 279/4/6 295/4/6
f 295/4/6 294/4/6 296/4/6
f 294/4/6 290/4/6 297/4/6
f 296/4/6 294/4/6 297/4/6
f 282/4/6 262/4/6 297/4/6
f 286/4/6 282/4/6 297/4/6
f 290/4/6 286/4/6 297/4/6
f 297/4/6 262/4/6 298/4/6
f 296/4/6 297/4/6 299/4/6
f 299/4/6 297/4/6 300/4/6
f 300/4/6 297/4/6 301/4/6
f 301/4/6 297/4/6 302/4/6
f 300/4/6 301/4/6 303/4/6
f 303/4/6 301/4/6 304/4/6
f 304/4/6 301/4/6 305/4/6
f 305/4/6 301/4/6 306/4/6
f 304/4/6 305/4/6 307/4/6
f 307/4/6 305/4/6 308/4/6
